# xmcd
#
# Track frame offsets:
#	150
#	16380
#	29635
#	44280
#	61055
#	78997
#	95632
#	112965
#	128997
#	140772
#
# Disc length: 2095 seconds
#
# Revision: 2
# Processed by: cddbd v1.5.2PL0 Copyright (c) Steve Scherf et al.
# Submitted via: EasyCDDAExtractor 9.1.3.1
#
DISCID=85082d0a
DTITLE=Marie Osmond - Steppin' Stone
DYEAR=1989
DGENRE=Country
TTITLE0=What Would You Do About You (If You Were Me)
TTITLE1=Slowly But Surely
TTITLE2=What's In It For ME
TTITLE3=Steppin' Stone
TTITLE4=What's A Little Love Between Friends
TTITLE5=If You Think About It Call Me
TTITLE6=Help Me Get Over You
TTITLE7=A Too Blue Moon
TTITLE8=Love Speaks Louder Than Words
TTITLE9=Let Me Be The First
EXTD=
EXTT0=
EXTT1=
EXTT2=
EXTT3=
EXTT4=
EXTT5=
EXTT6=
EXTT7=
EXTT8=
EXTT9=
PLAYORDER=
